<?xml version="1.0" encoding="utf-8"?>
<!-- Generator: Adobe Illustrator 23.0.5, SVG Export Plug-In . SVG Version: 6.00 Build 0)  -->
<svg version="1.1" id="Layer_1" xmlns="http://www.w3.org/2000/svg" xmlns:xlink="http://www.w3.org/1999/xlink" x="0px" y="0px"
	 viewBox="0 0 1948 1299" style="enable-background:new 0 0 1948 1299;" xml:space="preserve">
<g>
	<g>
		<path d="M1311.55,510.88c0-188.81-153.06-341.88-341.88-341.88S627.79,322.06,627.79,510.88c0,174.16,130.22,317.9,298.61,339.16
			V513.64c0-1.11,0.08-2.21,0.21-3.29h-4.53c-5.88,0-10.64-4.76-10.64-10.64v-33.16c-13.97-9.29-28.17-10.72-42.73,0v9.27
			c0,6.68-5.42,12.1-12.1,12.1h-45.25c-6.68,0-12.1-5.42-12.1-12.1v-87.98c0-6.68,5.42-12.1,12.1-12.1h45.25
			c6.68,0,12.1,5.42,12.1,12.1v8.2c12.66,11.47,27.2,9.34,42.73,0v-9.66c0-5.88,4.76-10.64,10.64-10.64h95.17
			c1.55,0,3.02,0.34,4.35,0.94c72.43,25.46,126.36,68.43,160.13,130.47c7.48,14.96,4.27,23.5-4.27,13.89
			c-51.2-73.81-123.72-66.02-149.57-56.36v35.04c0,5.6-4.33,10.18-9.83,10.6c0.14,1.09,0.21,2.2,0.21,3.33V849.3
			C1184.07,825.7,1311.55,683.19,1311.55,510.88z"/>
	</g>
	<g>
		<path d="M624.35,932.81v101.1h-14.44v-45.06h-58.06v45.06h-14.44v-101.1h14.44v43.47h58.06v-43.47H624.35z"/>
		<path d="M757.94,1008.63h-53.73l-11.12,25.27h-14.88L724,932.81h14.3l45.93,101.1h-15.16L757.94,1008.63z M752.89,997.08
			l-21.81-49.54l-21.81,49.54H752.89z"/>
		<path d="M931.83,1033.91l-0.14-73.66l-36.54,61.38h-6.64l-36.54-60.95v73.22H838.1v-101.1h11.84l42.17,71.06l41.59-71.06h11.84
			l0.14,101.1H931.83z"/>
		<path d="M1108.6,1033.91l-0.14-73.66l-36.54,61.38h-6.64l-36.54-60.95v73.22h-13.86v-101.1h11.84l42.17,71.06l41.59-71.06h11.84
			l0.15,101.1H1108.6z"/>
		<path d="M1265.01,1021.34v12.57h-73.37v-101.1h71.35v12.56h-56.9v31.05h50.69v12.28h-50.69v32.64H1265.01z"/>
		<path d="M1394.85,1033.91l-21.81-31.05c-2.7,0.19-4.81,0.29-6.35,0.29h-24.99v30.76h-14.44v-101.1h39.43
			c13.09,0,23.4,3.13,30.91,9.39c7.51,6.26,11.27,14.88,11.27,25.85c0,7.8-1.93,14.44-5.78,19.93c-3.85,5.49-9.34,9.48-16.46,11.99
			l23.97,33.94H1394.85z M1387.19,984.95c4.81-3.95,7.22-9.58,7.22-16.9c0-7.32-2.41-12.93-7.22-16.83
			c-4.82-3.9-11.8-5.85-20.94-5.85h-24.55v45.49h24.55C1375.4,990.87,1382.38,988.9,1387.19,984.95z"/>
	</g>
	<g>
		<path d="M693.84,1095.14h-13.47v-4.88h32.5v4.88h-13.47v34.41h-5.56V1095.14z"/>
		<path d="M759.12,1119.73h-20.88l-4.32,9.82h-5.78l17.8-39.3h5.56l17.85,39.3h-5.89L759.12,1119.73z M757.16,1115.24l-8.48-19.26
			l-8.48,19.26H757.16z"/>
		<path d="M817.51,1109.68h5.39V1125c-1.95,1.61-4.21,2.84-6.79,3.7c-2.58,0.86-5.28,1.29-8.08,1.29c-3.97,0-7.54-0.87-10.72-2.61
			c-3.18-1.74-5.68-4.14-7.49-7.19c-1.82-3.05-2.72-6.48-2.72-10.3s0.91-7.26,2.72-10.33c1.81-3.07,4.32-5.46,7.52-7.19
			c3.2-1.72,6.8-2.58,10.81-2.58c3.14,0,6,0.52,8.56,1.54c2.56,1.03,4.74,2.54,6.54,4.52l-3.48,3.48c-3.14-3.03-6.94-4.55-11.4-4.55
			c-2.99,0-5.68,0.65-8.06,1.94c-2.38,1.29-4.24,3.09-5.59,5.39c-1.35,2.3-2.02,4.89-2.02,7.78c0,2.84,0.67,5.42,2.02,7.72
			c1.35,2.3,3.21,4.11,5.59,5.42c2.38,1.31,5.04,1.96,8,1.96c3.52,0,6.59-0.84,9.21-2.53V1109.68z"/>
		<path d="M848.72,1090.25h5.61v34.41h21.28v4.88h-26.89V1090.25z"/>
		<path d="M897.17,1090.25h5.61v39.3h-5.61V1090.25z"/>
		<path d="M963.46,1090.25v39.3h-4.6l-23.58-29.3v29.3h-5.61v-39.3h4.6l23.58,29.3v-29.3H963.46z"/>
		<path d="M1018.87,1124.67v4.88h-28.52v-39.3h27.73v4.88h-22.12v12.07h19.7v4.77h-19.7v12.69H1018.87z"/>
		<path d="M1091.96,1090.25v39.3h-5.61v-17.52h-22.57v17.52h-5.61v-39.3h5.61v16.9h22.57v-16.9H1091.96z"/>
		<path d="M1147.37,1124.67v4.88h-28.52v-39.3h27.73v4.88h-22.12v12.07h19.7v4.77h-19.7v12.69H1147.37z"/>
		<path d="M1197.84,1129.55l-8.48-12.07c-1.05,0.08-1.87,0.11-2.47,0.11h-9.71v11.96h-5.61v-39.3h15.32c5.09,0,9.09,1.22,12.01,3.65
			c2.92,2.43,4.38,5.78,4.38,10.05c0,3.03-0.75,5.61-2.25,7.75c-1.5,2.13-3.63,3.69-6.4,4.66l9.32,13.19H1197.84z M1194.86,1110.52
			c1.87-1.53,2.81-3.72,2.81-6.57c0-2.84-0.94-5.02-2.81-6.54c-1.87-1.52-4.58-2.27-8.14-2.27h-9.54v17.68h9.54
			C1190.28,1112.82,1192.99,1112.06,1194.86,1110.52z"/>
		<path d="M1256,1124.67v4.88h-28.52v-39.3h27.73v4.88h-22.12v12.07h19.71v4.77h-19.71v12.69H1256z"/>
	</g>
</g>
</svg>
